<?xml version="1.0" encoding="utf-8"?>
<!-- Generator: Adobe Illustrator 16.0.0, SVG Export Plug-In . SVG Version: 6.00 Build 0)  -->
<!DOCTYPE svg PUBLIC "-//W3C//DTD SVG 1.1//EN" "http://www.w3.org/Graphics/SVG/1.1/DTD/svg11.dtd">
<svg version="1.1" id="Livello_1" xmlns="http://www.w3.org/2000/svg" xmlns:xlink="http://www.w3.org/1999/xlink" x="0px" y="0px"
	 width="512px" height="512px" viewBox="0 0 512 512" enable-background="new 0 0 512 512" xml:space="preserve">
<g>
	<defs>
		<rect id="SVGID_1_" width="512" height="512"/>
	</defs>
	<clipPath id="SVGID_2_">
		<use xlink:href="#SVGID_1_"  overflow="visible"/>
	</clipPath>
	
		<path clip-path="url(#SVGID_2_)" fill="none" stroke="#BCBEC0" stroke-width="35" stroke-linecap="round" stroke-linejoin="round" stroke-miterlimit="10" d="
		M137.465,251.622c0,0,0.666-122.093,80.665-118.273c97.783,4.668,74.283,242.643,185.191,245.365
		c84.555,2.075,82.479-126.573,82.479-126.573"/>
	
		<path clip-path="url(#SVGID_2_)" fill="none" stroke="#808285" stroke-width="35" stroke-linecap="round" stroke-linejoin="round" stroke-miterlimit="10" d="
		M82.997,251.622c0,0,0.666-122.093,80.665-118.273c97.783,4.668,74.283,242.643,185.19,245.365
		c84.556,2.075,82.48-126.573,82.48-126.573"/>
	
		<path clip-path="url(#SVGID_2_)" fill="none" stroke="#000000" stroke-width="35" stroke-linecap="round" stroke-linejoin="round" stroke-miterlimit="10" d="
		M26.195,251.622c0,0,0.666-122.093,80.665-118.273c97.783,4.668,74.283,242.643,185.191,245.365
		c84.555,2.075,82.479-126.573,82.479-126.573"/>
</g>
</svg>
