<?xml version="1.0" encoding="utf-8"?>
<!-- Generator: Adobe Illustrator 16.0.0, SVG Export Plug-In . SVG Version: 6.00 Build 0)  -->
<!DOCTYPE svg PUBLIC "-//W3C//DTD SVG 1.1//EN" "http://www.w3.org/Graphics/SVG/1.1/DTD/svg11.dtd">
<svg version="1.1" id="Livello_1" xmlns="http://www.w3.org/2000/svg" xmlns:xlink="http://www.w3.org/1999/xlink" x="0px" y="0px"
	 width="256px" height="256px" viewBox="0 0 256 256" enable-background="new 0 0 256 256" xml:space="preserve">
<g>
	<path fill="#FFFFFF" d="M243.1,126.805c-5.174,0-9.511-0.296-13.77,0.149c-1.637,0.172-3.85,1.699-4.511,3.184
		c-3.178,7.132-5.469,14.679-8.917,21.663c-4.396,8.905-8.683,18.113-14.656,25.939c-11.005,14.415-29.443,14.175-40.475-0.194
		c-5.01-6.526-9.284-13.892-12.498-21.467c-8.18-19.276-15.396-38.956-23.341-58.335c-5.564-13.572-11.762-26.868-22.874-37.075
		c-15.565-14.301-40.043-14.281-55.386,0.188c-2.891,2.725-5.663,5.691-7.938,8.934c-12.07,17.197-18.421,36.998-26.11,56.729
		c1.835,0.127,2.949,0.255,4.064,0.272c12.757,0.21,12.637,0.157,17.384-11.616c5.404-13.407,10.235-27.149,19.531-38.571
		c11.686-14.359,30.011-14.564,41.466-0.005c4.679,5.946,8.664,12.701,11.677,19.645c6.545,15.089,12.242,30.545,18.325,45.835
		c5.963,14.99,11.599,30.174,21.318,43.285c13.776,18.587,35.903,24.105,54.658,13.407c4.391-2.503,8.518-5.995,11.778-9.863
		C227.958,170.958,234.195,148.658,243.1,126.805z"/>
	<path fill-rule="evenodd" clip-rule="evenodd" d="M243.1,126.805c-8.904,21.854-15.142,44.153-30.275,62.105
		c-3.261,3.868-7.388,7.36-11.778,9.863c-18.755,10.698-40.882,5.18-54.658-13.407c-9.72-13.111-15.355-28.295-21.318-43.285
		c-6.083-15.29-11.779-30.747-18.325-45.835c-3.013-6.944-6.998-13.699-11.677-19.645c-11.455-14.56-29.78-14.354-41.466,0.005
		c-9.296,11.422-14.127,25.165-19.531,38.571c-4.747,11.773-4.626,11.826-17.384,11.616c-1.115-0.018-2.229-0.146-4.064-0.272
		c7.689-19.731,14.04-39.533,26.11-56.729c2.275-3.242,5.048-6.208,7.938-8.934c15.343-14.47,39.821-14.489,55.386-0.188
		c11.112,10.208,17.31,23.503,22.874,37.075c7.945,19.379,15.162,39.059,23.341,58.335c3.214,7.575,7.488,14.94,12.498,21.467
		c11.031,14.369,29.47,14.609,40.475,0.194c5.974-7.826,10.26-17.034,14.656-25.939c3.448-6.984,5.739-14.531,8.917-21.663
		c0.661-1.484,2.874-3.012,4.511-3.184C233.589,126.509,237.926,126.805,243.1,126.805z"/>
</g>
</svg>
