<?xml version="1.0" encoding="utf-8"?>
<!-- Generator: Adobe Illustrator 16.0.0, SVG Export Plug-In . SVG Version: 6.00 Build 0)  -->
<!DOCTYPE svg PUBLIC "-//W3C//DTD SVG 1.1//EN" "http://www.w3.org/Graphics/SVG/1.1/DTD/svg11.dtd">
<svg version="1.1" id="Livello_1" xmlns="http://www.w3.org/2000/svg" xmlns:xlink="http://www.w3.org/1999/xlink" x="0px" y="0px"
	 width="512px" height="512px" viewBox="0 0 512 512" enable-background="new 0 0 512 512" xml:space="preserve">
<g>
	<defs>
		<rect id="SVGID_1_" width="512" height="512"/>
	</defs>
	<clipPath id="SVGID_2_">
		<use xlink:href="#SVGID_1_"  overflow="visible"/>
	</clipPath>
	<path clip-path="url(#SVGID_2_)" d="M507.897,418.495c-1.092-12.367-12.012-21.513-24.376-20.437
		c-17.677,1.539-69.812,1.285-98.387-18.072c-31.834-21.564-53.951-67.834-62.277-130.284c-1.825-13.69-2.504-30.412-3.222-48.117
		c-2.056-50.68-3.998-98.55-30.944-121.402c-6.935-5.881-15.056-9.584-23.971-11.023c-0.38-0.071-0.766-0.134-1.153-0.186
		c-0.224-0.031-0.444-0.048-0.667-0.076c-0.312-0.039-0.627-0.072-0.941-0.106c-14.738-1.618-28.103,2.196-38.722,11.11
		c-27.057,22.717-28.929,70.664-30.912,121.426c-0.696,17.817-1.353,34.646-3.183,48.374c-8.327,62.45-30.444,108.72-62.277,130.284
		c-28.575,19.357-80.709,19.611-98.387,18.072c-12.372-1.097-23.28,8.038-24.389,20.404c-1.109,12.377,8.025,23.31,20.402,24.419
		c0.501,0.045,8.107,0.708,19.716,0.708c7.087,0,15.669-0.247,25.031-1.033c34.46-2.893,62.34-11.41,82.865-25.314
		c23.139-15.675,42.109-39.235,56.384-70.028c12.157-26.224,20.656-57.03,25.26-91.565c2.109-15.814,2.806-33.665,3.544-52.565
		c0.813-20.81,1.653-42.328,4.514-59.806c3.558-21.738,8.835-27.625,10.367-28.912c0.128-0.108,1.67-1.619,3.828-1.679
		c6.834-0.187,10.574,9.714,14.073,30.938c2.884,17.487,3.756,38.99,4.6,59.784c0.761,18.769,1.48,36.497,3.579,52.24
		c4.604,34.535,13.104,65.341,25.26,91.565c14.275,30.793,33.246,54.354,56.385,70.028c20.525,13.904,48.405,22.422,82.865,25.314
		c9.365,0.786,17.942,1.033,25.032,1.033c11.604,0,19.214-0.663,19.715-0.708C499.873,441.773,508.989,430.861,507.897,418.495"/>
</g>
</svg>
